<svg version="1.1" id="Layer_1" xmlns="http://www.w3.org/2000/svg" xmlns:xlink="http://www.w3.org/1999/xlink" x="0px" y="0px"
	 width="100%" viewBox="0 0 1755 843" enable-background="new 0 0 1755 843" xml:space="preserve">
<path fill="#FFFFFF" opacity="1.000000" stroke="none" 
	d="
M1307.000000,844.000000 
	C871.333313,844.000000 436.166656,844.000000 1.000000,844.000000 
	C1.000000,563.000000 1.000000,282.000000 1.000000,1.000000 
	C586.000000,1.000000 1171.000000,1.000000 1756.000000,1.000000 
	C1756.000000,282.000000 1756.000000,563.000000 1756.000000,844.000000 
	C1606.500000,844.000000 1457.000000,844.000000 1307.000000,844.000000 
M424.463379,252.554489 
	C429.817322,240.202896 435.486298,227.976013 440.438599,215.465454 
	C445.629242,202.352921 450.424774,189.061325 454.701813,175.627930 
	C455.615662,172.757706 454.462646,168.160477 452.497223,165.878998 
	C451.465118,164.680984 446.497955,166.458328 443.539154,167.530594 
	C442.284790,167.985184 441.396759,169.976028 440.729340,171.444595 
	C433.028076,188.390793 425.436157,205.386795 417.703979,222.318756 
	C416.867249,224.150986 415.332733,225.664597 413.898682,226.589584 
	C406.899078,210.635803 401.457947,194.173767 396.223663,177.544861 
	C392.713928,166.394775 389.357239,154.610901 381.550568,145.207870 
	C380.350677,143.762665 378.215363,143.094070 376.512665,142.066315 
	C375.441223,143.902893 373.381165,145.783035 373.459869,147.568939 
	C373.947296,158.629868 373.596283,169.963593 375.979858,180.659378 
	C382.273987,208.902924 389.823059,236.866791 396.264984,265.279236 
	C386.291870,286.318054 376.326050,307.360382 366.343964,328.394928 
	C349.874756,363.099365 333.429657,397.815430 316.824188,432.454590 
	C315.931305,434.317139 313.903229,436.183197 311.975830,436.904419 
	C304.816711,439.583374 297.537720,441.986633 290.197174,444.127991 
	C262.119995,452.318695 235.423187,463.287109 211.156494,480.061035 
	C195.009674,491.222290 181.242081,504.445374 170.917801,521.018921 
	C154.996307,546.577576 150.799210,573.462097 163.108170,601.891785 
	C170.440231,618.826477 186.467972,627.169495 204.544083,623.578003 
	C218.348679,620.835205 228.414978,611.924438 236.594208,601.875244 
	C253.053970,581.652466 269.134888,560.951111 283.392578,539.152405 
	C298.660858,515.808777 311.994019,491.163300 325.431366,466.679626 
	C329.574524,459.130524 334.284637,455.507538 342.940552,454.129486 
	C358.152679,451.707672 372.983856,446.992676 388.131500,444.044128 
	C414.060333,438.996948 440.110199,434.571350 466.680237,430.286652 
	C476.094727,446.322601 485.416046,462.414093 494.941833,478.383606 
	C519.376099,519.346558 549.176514,556.356873 579.641541,592.861450 
	C581.962402,595.642456 585.008728,597.808533 587.630493,600.350647 
	C589.988037,602.636536 592.554138,604.810181 594.450073,607.448792 
	C598.987061,613.762817 606.028625,615.869141 612.206360,612.348816 
	C618.424744,608.805298 620.641479,601.545410 617.028870,594.669617 
	C613.273743,587.522522 609.307251,580.440247 604.847046,573.718567 
	C591.447144,553.524841 577.274719,533.829346 564.304565,513.368408 
	C545.997070,484.487549 528.496643,455.095154 511.534149,425.823639 
	C551.854248,421.015717 592.265564,417.952240 633.333069,419.131958 
	C633.005798,421.150452 632.815247,422.784851 632.470093,424.385895 
	C627.803467,446.031403 623.339417,467.681000 623.748047,490.024628 
	C624.065002,507.351685 623.813416,524.689331 624.151733,542.015625 
	C624.290833,549.141235 624.708435,556.369934 626.091675,563.334778 
	C627.765198,571.761658 634.772949,576.467529 643.296387,576.186768 
	C651.320740,575.922424 657.761353,570.495178 659.080627,562.201538 
	C659.724854,558.151367 659.646606,553.914368 659.354614,549.800293 
	C658.353638,535.694092 657.315430,521.584595 655.904175,507.515259 
	C654.657410,495.086182 657.594971,484.128876 662.966248,472.686707 
	C670.383057,456.887054 680.620422,443.414795 691.489929,430.219086 
	C694.131836,427.011810 698.079895,424.533081 701.901428,422.716675 
	C710.007874,418.863586 713.978821,420.461487 718.074097,428.444885 
	C719.355408,430.942688 720.535828,433.564270 721.251221,436.264648 
	C722.561157,441.209137 722.909607,446.473389 724.696350,451.213257 
	C728.730469,461.915039 741.038452,465.509796 753.547302,460.121979 
	C755.565979,459.252472 757.564575,458.336151 759.976746,457.261322 
	C759.370422,467.429932 758.697571,476.888000 758.262390,486.357025 
	C757.001526,513.790588 761.599121,540.282593 770.045715,566.386536 
	C775.278625,582.558655 784.650513,595.504028 797.115967,606.344849 
	C810.724670,618.179932 833.782104,619.426880 845.751099,609.131592 
	C852.292480,603.504822 858.576843,597.363953 863.932068,590.624573 
	C871.778259,580.750183 878.799438,570.208191 885.955200,559.801514 
	C890.555176,553.111694 894.850159,546.206177 899.113098,539.293335 
	C901.054077,536.145813 902.586853,532.746521 904.680237,528.743347 
	C905.171448,531.215942 905.504272,532.675476 905.739380,534.150574 
	C905.896179,535.134766 905.875244,536.145996 905.999207,537.136902 
	C908.256714,555.189392 914.493347,571.331360 928.559509,583.638306 
	C941.153076,594.656799 959.095581,595.433228 971.097778,585.116394 
	C976.127869,580.792603 980.762390,575.896179 984.997742,570.780640 
	C999.788879,552.915527 1012.046448,533.349548 1023.048218,512.964783 
	C1024.940796,509.458160 1027.247803,506.173248 1029.397461,502.807648 
	C1035.748901,492.863464 1042.148315,482.949677 1048.463013,472.982208 
	C1050.737793,469.391479 1052.825073,465.681732 1054.566406,462.752106 
	C1060.109375,472.774139 1065.631470,482.574829 1070.970825,492.474121 
	C1074.824219,499.618378 1079.027466,506.657654 1082.016235,514.165100 
	C1086.670166,525.855225 1083.495483,536.241455 1074.887085,545.200439 
	C1063.902710,556.632141 1052.393311,567.324219 1038.316162,575.040955 
	C1035.186768,576.756348 1032.781982,580.209595 1030.703247,583.305542 
	C1028.732910,586.239990 1030.034180,589.325134 1033.464478,589.729187 
	C1037.426025,590.195801 1042.020264,590.505005 1045.495728,588.970703 
	C1059.774292,582.667358 1073.881104,575.927979 1087.770264,568.801697 
	C1105.632935,559.636719 1120.911865,538.528259 1116.038452,513.657837 
	C1113.525146,500.831757 1108.312988,488.967133 1100.465088,478.825500 
	C1090.398682,465.817230 1083.702026,451.414642 1077.938965,436.239197 
	C1075.937134,430.967773 1076.425781,427.359894 1079.880737,423.240326 
	C1091.199341,409.744598 1096.844116,393.633179 1100.562866,376.731079 
	C1103.241333,364.557251 1096.992310,357.066986 1084.454102,356.954834 
	C1076.294312,356.881836 1069.405029,359.797394 1063.912231,365.646149 
	C1052.181152,378.137451 1048.099854,393.801239 1045.984497,410.207886 
	C1044.421997,422.326263 1048.912354,433.489319 1051.357300,444.991943 
	C1051.813599,447.138641 1051.447632,449.948639 1050.379028,451.841644 
	C1046.788940,458.201324 1042.684814,464.269257 1038.822998,470.477081 
	C1026.193604,490.778503 1014.234741,511.537445 1000.743530,531.248047 
	C991.441589,544.838135 979.038574,556.001526 966.058838,566.268555 
	C961.164490,570.140015 954.366638,567.722290 952.763489,561.624695 
	C951.410767,556.479675 950.087036,551.319580 948.995544,546.114746 
	C945.306213,528.521240 945.804565,510.660248 946.152039,492.865967 
	C946.729980,463.264496 951.099976,433.778412 948.979858,404.090149 
	C948.424133,396.308502 947.788940,388.523285 946.841736,380.782349 
	C946.294250,376.308258 943.267029,373.530914 938.795776,373.236267 
	C934.564514,372.957428 931.512634,375.076660 930.120728,379.314331 
	C929.134460,382.316895 927.644409,385.185638 926.938721,388.243225 
	C924.029846,400.847076 921.244385,413.481293 918.582214,426.139801 
	C914.719788,444.505676 909.961182,462.766998 907.552979,481.328278 
	C905.614136,496.271912 898.931030,507.818298 889.230225,518.488586 
	C885.553223,522.532959 882.682312,527.298889 879.262634,531.591431 
	C875.345642,536.508240 871.303894,541.331482 867.169556,546.067261 
	C864.329773,549.320129 860.697021,551.998413 858.364197,555.553894 
	C851.507141,566.004700 842.324585,574.112305 833.313660,582.540649 
	C828.362183,587.171997 823.121460,587.491760 818.138367,583.363892 
	C811.515381,577.877380 804.904602,571.020386 801.422974,563.332703 
	C786.518555,530.421997 784.259155,495.144775 785.408508,459.677002 
	C785.978516,442.088806 788.546387,424.562775 790.281311,407.015625 
	C792.441711,385.165222 794.259705,363.269958 796.991577,341.490143 
	C799.866638,318.568817 803.670532,295.764526 806.999268,272.899017 
	C807.426514,269.964264 808.796265,269.296753 811.700623,269.292603 
	C853.851746,269.232697 896.003113,269.081299 938.152954,268.766022 
	C943.438477,268.726532 948.747437,267.823792 953.989929,266.976929 
	C961.782837,265.718109 965.948181,258.102081 962.816772,251.253510 
	C959.490112,243.977905 949.729309,241.076157 942.791077,245.037857 
	C940.422607,246.390259 937.655029,247.570251 934.987183,247.780441 
	C923.539307,248.682404 912.067871,249.539566 900.591797,249.778824 
	C872.607300,250.362259 844.615601,250.594711 816.626709,250.963470 
	C814.872498,250.986588 813.117798,250.966476 811.481079,250.966476 
	C813.204407,236.997742 814.892212,223.646820 816.488159,210.284912 
	C817.987244,197.734573 819.480957,185.182129 820.780457,172.610291 
	C821.189758,168.651245 820.612061,164.366684 815.911743,163.452438 
	C811.523132,162.598831 809.416016,166.321228 808.087708,169.759186 
	C806.716980,173.306885 805.764404,177.067520 805.069885,180.816696 
	C801.012390,202.719162 796.972656,224.626480 793.215515,246.581558 
	C792.535828,250.553452 790.743469,251.272308 787.222717,251.244675 
	C771.238281,251.119247 755.239746,251.613770 739.269836,251.120636 
	C719.367188,250.506042 699.337341,250.789658 679.981018,244.462555 
	C676.985779,243.483505 672.847046,244.981033 669.604675,246.262894 
	C668.235413,246.804260 666.988098,249.856964 667.202332,251.579468 
	C667.415161,253.291122 669.233948,255.613922 670.869568,256.190430 
	C676.472351,258.165314 682.223145,259.941437 688.061829,260.988983 
	C718.939453,266.528961 750.103882,268.963562 781.464355,268.992126 
	C783.526794,268.994019 785.589294,268.992371 786.665833,268.992371 
	C782.292969,299.776550 777.974854,329.864319 773.756409,359.966064 
	C770.087158,386.149414 766.450989,412.338043 762.997559,438.550323 
	C762.382629,443.218048 760.341125,446.692291 756.048157,447.893829 
	C750.692139,449.392914 745.103760,450.301392 739.556274,450.790314 
	C735.981018,451.105408 733.427795,449.211182 732.669617,445.096649 
	C731.558044,439.064453 730.280029,433.015961 728.436523,427.175262 
	C724.586243,414.977203 712.332764,408.651306 700.796021,413.905060 
	C691.958069,417.929779 683.918762,423.781616 675.731079,429.136902 
	C669.406677,433.273468 663.402771,437.900116 656.423096,442.906616 
	C657.188171,435.972687 657.835571,429.751678 658.567261,423.540588 
	C660.607788,406.219269 662.659912,388.899231 664.765381,371.585724 
	C665.166016,368.291443 664.692444,365.253418 661.239685,364.235687 
	C657.649597,363.177399 654.083618,362.455444 650.863647,366.237427 
	C645.583801,372.438812 643.147644,379.768463 641.076599,387.322815 
	C639.115479,394.476288 637.402527,401.697754 635.552673,408.998749 
	C590.520935,403.654327 545.970947,406.843353 500.968353,408.881866 
	C496.343781,400.836823 491.473602,392.921478 487.142181,384.721558 
	C475.599030,362.868896 463.730621,341.161102 453.043243,318.890991 
	C442.662628,297.260315 433.588165,275.002838 424.463379,252.554489 
M1040.307983,248.162781 
	C1041.491699,249.668930 1042.381470,251.965652 1043.913452,252.535477 
	C1048.841797,254.368637 1053.929810,255.983063 1059.093994,256.936096 
	C1085.972900,261.896667 1113.073364,264.827362 1140.432739,265.043182 
	C1147.204712,265.096588 1153.977417,265.051147 1161.055664,265.051147 
	C1160.933716,266.923248 1160.965088,267.909241 1160.793579,268.858612 
	C1157.483887,287.178589 1153.764526,305.435059 1150.943481,323.829498 
	C1148.675903,338.614655 1147.697632,353.592499 1145.781616,368.437653 
	C1141.547974,401.240417 1136.590332,433.957886 1132.890869,466.818573 
	C1130.503906,488.022552 1130.633179,509.431396 1135.112793,530.470398 
	C1139.717773,552.098389 1144.343018,573.651733 1159.188354,591.473755 
	C1170.549316,605.112610 1183.907593,613.525208 1202.071533,612.840881 
	C1209.049683,612.577942 1215.741089,610.903748 1220.918945,606.011475 
	C1227.447021,599.843567 1234.122192,593.681946 1239.697876,586.691345 
	C1247.455078,576.965576 1254.354614,566.544495 1261.419800,556.282349 
	C1265.648193,550.140625 1269.591187,543.794495 1273.469604,537.422791 
	C1275.597778,533.926208 1277.325684,530.186035 1279.813843,525.452820 
	C1280.689087,531.629089 1281.103638,536.572449 1282.123779,541.387451 
	C1285.634644,557.958191 1292.529297,572.610168 1306.620361,582.987488 
	C1318.352539,591.627625 1336.076050,591.585571 1345.987427,582.268738 
	C1357.039551,571.879456 1367.458984,560.869019 1375.113403,547.559509 
	C1377.638184,543.169678 1380.551880,539.003601 1383.283447,534.741882 
	C1386.667847,543.094910 1389.027222,551.323730 1393.112061,558.581482 
	C1410.315063,589.146667 1443.047729,598.403198 1472.293823,580.279846 
	C1479.223755,575.985413 1486.109009,571.581970 1492.713257,566.811096 
	C1498.079346,562.934692 1503.390015,558.824280 1508.025635,554.127075 
	C1517.595703,544.429688 1526.648682,534.223999 1536.015259,524.322815 
	C1540.870972,519.190063 1543.916748,513.256897 1544.473389,506.221344 
	C1544.580811,504.862976 1543.814819,502.938049 1542.782837,502.149384 
	C1542.001831,501.552399 1539.871216,501.911041 1538.828857,502.591461 
	C1528.291992,509.469879 1517.567871,516.112610 1507.457764,523.581604 
	C1491.870850,535.096741 1475.484131,545.195984 1458.033569,553.556580 
	C1454.653320,555.176025 1450.890869,556.634338 1447.216187,556.888550 
	C1433.539917,557.834839 1419.748535,547.218140 1415.978027,533.217041 
	C1412.295898,519.543518 1413.857300,505.667480 1415.562012,492.013306 
	C1418.834717,465.801758 1430.369995,442.327026 1442.579346,419.461273 
	C1451.791626,402.208160 1466.327026,397.093933 1485.571167,400.470612 
	C1494.193726,401.983551 1499.290283,406.604218 1501.972656,414.474976 
	C1503.023804,417.559845 1504.807617,419.591614 1508.173340,418.794189 
	C1511.852783,417.922455 1512.971802,414.818054 1511.655884,411.765320 
	C1509.307495,406.316986 1507.337891,400.089508 1503.315918,396.094727 
	C1491.541382,384.399841 1476.178833,380.724945 1460.204468,381.753265 
	C1449.302979,382.455048 1440.554199,389.444061 1432.270386,396.271637 
	C1421.192017,405.402374 1414.829712,417.832855 1408.151245,430.180725 
	C1394.357666,455.684235 1384.520020,482.252197 1383.707886,511.607666 
	C1383.529175,518.070190 1383.693604,524.787170 1376.444946,528.207703 
	C1376.305542,528.273499 1376.222046,528.451965 1376.104004,528.569397 
	C1364.674805,539.932617 1353.346313,551.399780 1341.765259,562.605957 
	C1337.094727,567.125305 1329.647583,565.437317 1328.014160,559.562256 
	C1326.014526,552.369629 1324.160522,545.074341 1323.076660,537.700989 
	C1319.911987,516.174133 1320.652344,494.513428 1321.872925,472.889618 
	C1323.213867,449.135437 1325.680542,425.419800 1323.988403,401.583221 
	C1323.435791,393.798187 1322.765381,386.016937 1321.918457,378.259125 
	C1321.401855,373.526276 1318.445312,370.556549 1313.742188,370.267151 
	C1309.279053,369.992523 1306.530151,372.517365 1304.909668,376.842072 
	C1300.049927,389.811493 1296.508301,402.998566 1294.347168,416.765808 
	C1291.413208,435.456055 1285.950806,453.773499 1283.463379,472.501953 
	C1281.508057,487.222870 1275.675293,499.328064 1266.501953,510.436066 
	C1261.534302,516.451416 1256.969604,522.797913 1252.135254,528.925781 
	C1248.858276,533.079651 1245.538696,537.210815 1242.032593,541.170105 
	C1239.062134,544.524475 1235.244751,547.243408 1232.765869,550.897278 
	C1225.484497,561.629944 1216.395386,570.544922 1206.609009,578.895935 
	C1202.012207,582.818542 1196.750610,583.482422 1191.832764,579.802002 
	C1189.332520,577.930786 1187.352417,575.375366 1185.072266,573.197266 
	C1177.390625,565.859863 1174.898560,555.968018 1171.387329,546.442932 
	C1159.337524,513.755676 1159.040649,479.869873 1161.438965,445.906830 
	C1163.430054,417.711578 1167.465942,389.665863 1169.778564,361.486847 
	C1172.271118,331.116425 1176.187744,300.988281 1181.782104,271.045044 
	C1182.569092,266.832550 1184.141113,265.836090 1188.255005,265.854919 
	C1223.247070,266.015045 1258.242432,266.135345 1293.231934,265.776886 
	C1304.842407,265.657928 1316.467773,264.379486 1328.028198,263.103394 
	C1333.812134,262.464874 1336.849609,258.289276 1337.106323,252.892609 
	C1337.360718,247.547455 1334.600586,244.008652 1330.301270,241.591797 
	C1325.643799,238.973480 1320.830322,238.955002 1316.029663,241.592834 
	C1314.204102,242.595963 1312.194336,243.788864 1310.212280,243.901047 
	C1290.768677,245.001419 1271.322144,246.223724 1251.858643,246.749741 
	C1231.874390,247.289810 1211.869995,247.092072 1191.874512,247.214447 
	C1190.091797,247.225357 1188.309082,247.215912 1186.550415,247.215912 
	C1189.005859,227.653397 1191.426147,208.707703 1193.740845,189.749100 
	C1194.567383,182.979630 1195.321777,176.190735 1195.757812,169.388168 
	C1196.020874,165.282272 1195.369263,161.219833 1190.348999,160.022125 
	C1186.462524,159.094955 1182.970337,161.702652 1181.226074,166.702698 
	C1180.788818,167.956329 1180.402466,169.239258 1180.132324,170.537811 
	C1178.710205,177.369995 1177.232300,184.192856 1175.959473,191.053391 
	C1172.684937,208.703018 1169.480835,226.365875 1166.323975,244.036896 
	C1165.890259,246.464508 1165.157837,247.949890 1162.273071,247.908279 
	C1126.074707,247.386078 1089.655640,250.397812 1054.022705,240.982697 
	C1052.744263,240.644882 1051.395752,240.482559 1050.071533,240.422791 
	C1044.827393,240.186035 1041.513916,242.567322 1040.307983,248.162781 
M566.932800,681.809631 
	C499.450134,681.328064 431.967743,680.804871 364.484741,680.374939 
	C271.675842,679.783691 178.866486,679.269165 86.057411,678.705566 
	C71.729370,678.618530 57.396942,678.211548 43.078320,678.512634 
	C40.282261,678.571472 36.845501,680.653320 35.020241,682.880615 
	C33.817978,684.347717 33.984829,688.718323 35.300426,690.055725 
	C37.346687,692.135925 40.882481,693.794067 43.802628,693.819458 
	C126.943619,694.539917 210.086624,695.025269 293.229218,695.565369 
	C460.186523,696.650024 627.143738,697.748535 794.101074,698.828003 
	C810.930237,698.936768 827.760193,699.003784 844.589600,698.981689 
	C849.455505,698.975281 852.793030,695.732971 852.833679,691.433472 
	C852.872253,687.356018 849.842346,684.093201 845.286743,683.637512 
	C842.477722,683.356567 839.631042,683.406250 836.800781,683.389465 
	C747.157715,682.857788 657.514587,682.336182 566.932800,681.809631 
M1384.313354,675.346313 
	C1379.048096,677.108765 1376.650146,680.084839 1377.255859,684.105347 
	C1377.926880,688.558594 1381.140747,690.870422 1386.774536,690.950623 
	C1387.107910,690.955383 1387.441162,690.951294 1387.774536,690.951294 
	C1484.773193,690.951111 1581.771729,690.955750 1678.770386,690.917358 
	C1680.727051,690.916626 1683.359009,691.105347 1684.492065,689.996216 
	C1686.526001,688.005249 1688.839111,685.083984 1688.817627,682.570496 
	C1688.798218,680.324585 1686.078369,677.753418 1683.980957,676.010498 
	C1682.810303,675.037720 1680.480103,675.279968 1678.672485,675.279602 
	C1580.840698,675.258545 1483.008789,675.270081 1384.313354,675.346313 
M1203.450928,698.181396 
	C1209.676025,710.854309 1215.904419,723.525574 1222.124512,736.200928 
	C1224.052612,740.130127 1226.883667,742.902954 1231.543213,741.789307 
	C1236.302246,740.651978 1237.917969,736.988525 1237.906128,732.327209 
	C1237.839111,706.004089 1237.820557,679.680786 1237.788574,653.357544 
	C1237.782959,648.692505 1237.792236,644.027527 1237.793701,639.362488 
	C1237.794067,638.362915 1237.832153,637.361328 1237.783325,636.364136 
	C1237.514282,630.871521 1234.297729,627.224121 1229.831909,627.318420 
	C1225.192383,627.416260 1222.114868,630.908997 1222.089355,636.518372 
	C1222.019043,652.012573 1222.066162,667.507324 1222.066895,683.001831 
	C1222.067017,688.216248 1222.066895,693.430664 1222.066895,700.109924 
	C1220.704346,697.678955 1220.042603,696.617249 1219.493042,695.500183 
	C1209.745117,675.683716 1200.000732,655.865723 1190.281250,636.035278 
	C1187.933105,631.244324 1184.476440,628.984619 1180.617676,630.243469 
	C1175.992065,631.752563 1174.543213,635.128174 1174.798096,639.945801 
	C1175.730591,657.576294 1176.364136,675.222351 1177.142700,692.861145 
	C1177.737793,706.340088 1178.356201,719.818176 1179.015869,733.294067 
	C1179.314697,739.401611 1183.490112,743.076538 1188.654907,741.911682 
	C1192.695557,741.000305 1194.883423,737.526855 1194.635620,732.251099 
	C1194.159058,722.102600 1193.479248,711.960815 1193.184204,701.807495 
	C1192.942017,693.471619 1193.134766,685.122986 1193.134766,677.179688 
	C1196.266357,683.578247 1199.679565,690.552185 1203.450928,698.181396 
M976.166931,745.509338 
	C976.805664,743.025085 978.024963,740.530090 977.979187,738.058594 
	C977.811707,729.015564 977.222778,719.980347 976.739624,709.828857 
	C978.668762,711.443665 979.642944,712.237244 980.593506,713.058044 
	C992.315430,723.179749 1003.978088,733.371033 1015.778931,743.399719 
	C1020.937195,747.783386 1028.459595,745.726685 1028.767456,739.677612 
	C1028.910645,736.864990 1027.220093,733.122192 1025.099487,731.173767 
	C1015.048645,721.938965 1004.559082,713.181763 994.236145,704.242493 
	C992.940308,703.120361 991.705627,701.927673 990.186157,700.532043 
	C1000.049011,696.986938 1008.599487,692.671936 1015.473328,685.546204 
	C1029.169922,671.347717 1027.024536,653.310364 1010.303711,642.883301 
	C1000.284119,636.635071 989.150146,634.116211 977.497742,634.062195 
	C970.671997,634.030518 963.842712,634.748108 956.731201,635.144409 
	C957.220459,642.272095 957.682434,648.072205 958.006348,653.880005 
	C959.599792,682.446716 961.096924,711.018921 962.764954,739.581238 
	C963.223938,747.439880 968.680237,750.072937 976.166931,745.509338 
M953.351318,717.004517 
	C945.298035,691.720520 937.222717,666.443542 929.215637,641.144897 
	C928.041382,637.435059 925.932495,635.146667 921.874207,634.942871 
	C917.820862,634.739380 915.532532,636.829712 913.905945,640.353455 
	C899.302002,671.989075 884.615173,703.586487 869.978210,735.206909 
	C867.585876,740.375183 868.698181,744.826904 872.749695,746.866211 
	C877.092590,749.052185 881.437439,747.218323 883.962158,741.888489 
	C888.154663,733.037964 892.134521,724.085938 896.404907,715.274048 
	C897.060303,713.921631 898.770691,712.182800 900.024048,712.157593 
	C911.810852,711.920105 923.604431,712.016418 935.438843,712.016418 
	C938.844116,722.629211 942.021545,732.906006 945.463745,743.093445 
	C947.060974,747.820496 951.130615,749.864624 955.183350,748.514954 
	C959.615723,747.038940 961.573914,743.075623 960.092285,738.149597 
	C958.038147,731.320068 955.837830,724.534424 953.351318,717.004517 
M1248.977173,703.359924 
	C1245.784302,713.303711 1242.529907,723.228271 1239.424561,733.199341 
	C1237.888672,738.131287 1239.900635,742.501526 1244.049072,743.862915 
	C1248.384033,745.285522 1252.268188,743.096252 1254.115479,738.168274 
	C1254.463989,737.238403 1254.741455,736.281799 1255.047607,735.336182 
	C1258.102051,725.904785 1261.155762,716.473083 1264.247803,706.923279 
	C1272.546387,706.923279 1280.547607,707.274109 1288.497925,706.789124 
	C1293.127319,706.506775 1294.792358,708.359070 1295.954956,712.399719 
	C1298.429810,721.000732 1301.217651,729.517761 1304.103760,737.992004 
	C1305.560059,742.267639 1309.071899,743.883850 1313.276367,742.835144 
	C1317.002319,741.905884 1319.205078,739.140137 1318.965942,735.097534 
	C1318.860229,733.310181 1318.274170,731.523621 1317.724976,729.794189 
	C1307.485718,697.545105 1297.222046,665.303772 1286.954224,633.063843 
	C1285.722534,629.196533 1283.322021,626.895813 1278.985352,626.952393 
	C1274.311768,627.013245 1272.308105,629.949036 1271.061646,633.861633 
	C1263.763062,656.770081 1256.457275,679.676147 1248.977173,703.359924 
M1057.065308,725.930908 
	C1052.930786,721.327026 1048.448975,716.981934 1044.766235,712.041260 
	C1041.550781,707.727295 1037.851807,705.828552 1033.917969,707.916687 
	C1029.488159,710.268066 1027.986694,715.237976 1030.925293,719.812073 
	C1033.966553,724.545776 1037.284546,729.183411 1041.038696,733.362366 
	C1052.502686,746.123413 1078.381836,746.523743 1091.724976,734.599915 
	C1109.032227,719.133789 1104.209229,688.661194 1082.927734,679.114258 
	C1077.522095,676.689270 1071.196045,675.863037 1065.202759,675.345886 
	C1060.490112,674.939087 1058.084106,673.376465 1056.635498,668.826904 
	C1054.860962,663.254211 1057.142334,658.676331 1059.085693,653.985352 
	C1063.014282,644.501831 1078.999390,642.425720 1085.481445,650.415955 
	C1087.930420,653.434570 1090.969116,654.642761 1094.746826,653.053162 
	C1098.496826,651.475220 1100.225586,648.356323 1099.335327,644.654968 
	C1098.686035,641.954956 1097.112427,639.023926 1095.060669,637.194336 
	C1086.824463,629.849915 1076.683350,628.827942 1066.448608,630.677063 
	C1053.163208,633.077332 1043.340576,644.425537 1040.979980,658.737549 
	C1037.743896,678.357910 1048.109863,690.718506 1067.958740,690.907349 
	C1077.644409,690.999512 1084.378906,697.187805 1086.248169,707.713562 
	C1087.987549,717.507996 1084.741211,722.702026 1075.420898,726.021362 
	C1069.475952,728.138489 1063.721436,727.991943 1057.065308,725.930908 
M1165.652100,636.036560 
	C1162.883789,634.867493 1160.143799,632.773865 1157.342407,632.688660 
	C1144.856934,632.308472 1132.333374,632.944580 1119.862915,632.366028 
	C1107.097656,631.773743 1103.599243,633.486633 1104.572876,648.063660 
	C1106.458740,676.299500 1106.983521,704.626099 1108.085327,732.914612 
	C1108.306641,738.597351 1111.631470,741.892151 1117.210449,741.883667 
	C1132.204956,741.860840 1147.199707,741.804199 1162.193970,741.713501 
	C1163.669922,741.704529 1165.625610,741.895813 1166.522705,741.077637 
	C1168.666626,739.122375 1171.208008,736.872131 1171.938477,734.276489 
	C1172.925415,730.769470 1170.694946,727.826355 1167.056030,726.689209 
	C1165.357666,726.158447 1163.467773,726.081848 1161.663574,726.074890 
	C1149.039185,726.025879 1136.414551,726.048950 1123.100220,726.048950 
	C1123.100220,716.175781 1123.100220,706.791931 1123.100220,697.359436 
	C1123.188599,697.316895 1123.338257,697.182251 1123.488892,697.181213 
	C1128.651245,697.146057 1133.814209,697.161743 1138.976074,697.088806 
	C1144.652466,697.008606 1148.043091,694.081360 1148.010620,689.393372 
	C1147.977661,684.622986 1144.732910,681.794434 1138.932129,681.698425 
	C1133.336304,681.605713 1127.737793,681.678345 1121.244141,681.678345 
	C1121.244141,670.177795 1121.244141,659.277588 1121.244141,648.028870 
	C1133.170410,648.028870 1145.650879,648.085083 1158.130615,648.006897 
	C1165.155396,647.962891 1168.178955,643.529724 1165.652100,636.036560 
M602.013428,149.485489 
	C602.012695,143.325745 602.325256,137.142227 601.860229,131.017731 
	C601.668701,128.495331 600.418457,125.239319 598.527405,123.890762 
	C596.666016,122.563347 592.524353,122.089874 590.930847,123.292427 
	C588.670471,124.998306 586.605530,128.567062 586.569824,131.366684 
	C586.245178,156.827789 586.379517,182.294724 586.383911,207.759964 
	C586.384033,208.425125 586.379578,209.097382 586.467346,209.754303 
	C587.077515,214.321579 590.168091,217.130081 594.431763,217.021194 
	C598.648376,216.913498 601.703613,213.873138 601.966919,209.332886 
	C602.111267,206.843735 602.011658,204.340088 602.012451,201.842987 
	C602.015076,193.260498 602.013428,184.678009 602.013428,176.221329 
	C612.771606,176.221329 622.875916,176.221329 633.372620,176.221329 
	C633.372620,178.242950 633.372681,180.033997 633.372620,181.825027 
	C633.372314,190.814850 633.240051,199.807251 633.416504,208.793594 
	C633.541077,215.138855 638.132935,218.779999 643.569153,217.015732 
	C647.847900,215.627075 649.053955,212.239243 649.043945,208.009079 
	C648.985107,183.203979 649.013855,158.398666 649.011169,133.593430 
	C649.011108,132.927765 649.039978,132.256668 648.969482,131.597290 
	C648.493286,127.144302 645.863831,124.687225 641.559448,124.213821 
	C637.693298,123.788605 634.075684,126.729050 633.716003,130.957977 
	C633.280090,136.083115 633.429626,141.260315 633.381592,146.415482 
	C633.338989,150.996475 633.372620,155.578186 633.372620,160.111969 
	C622.536743,160.111969 612.456787,160.111969 602.013489,160.111969 
	C602.013489,156.748642 602.013489,153.613678 602.013428,149.485489 
M663.589722,122.627983 
	C656.696228,123.247131 654.286377,125.913994 654.301697,132.215729 
	C654.363159,157.516907 654.351929,182.818512 654.275635,208.119659 
	C654.257385,214.176682 657.737305,217.867752 663.720398,217.712296 
	C667.880188,217.604233 672.041321,217.500015 676.202209,217.485611 
	C686.197205,217.451019 696.193848,217.573730 706.186951,217.430603 
	C712.575195,217.339111 716.412170,212.808472 714.727478,207.549393 
	C713.446289,203.550018 710.472107,201.923996 706.311401,201.949203 
	C694.362732,202.021622 682.413330,201.974747 670.339600,201.974747 
	C670.339600,192.823929 670.339600,184.114380 670.339600,175.089294 
	C675.943848,175.089294 681.248901,175.126236 686.553284,175.079239 
	C692.212280,175.029083 695.708618,172.111450 695.767883,167.491776 
	C695.827148,162.872177 692.314575,159.771942 686.752686,159.697006 
	C681.304932,159.623611 675.855408,159.681030 670.339478,159.681030 
	C670.339478,152.282974 670.339478,145.384033 670.339478,138.164917 
	C682.283508,138.164917 693.917114,138.191360 705.550598,138.154083 
	C711.616333,138.134644 715.084412,135.244339 715.047180,130.389771 
	C715.009949,125.534981 711.645569,122.826355 705.395691,122.802345 
	C691.736023,122.749870 678.075989,122.763817 663.589722,122.627983 
M620.711670,652.807129 
	C628.882446,659.328613 637.771362,663.962830 648.486511,664.870789 
	C662.032349,666.018677 674.426208,664.354126 683.558594,652.913513 
	C684.689392,651.496948 685.463928,649.796021 686.813477,647.542419 
	C684.267029,647.291870 682.825012,647.103943 681.376892,647.014893 
	C672.227600,646.452393 666.293091,641.516235 664.037231,632.562195 
	C660.264465,617.587097 646.631165,607.530212 630.860413,607.938599 
	C627.961792,608.013672 626.231873,608.864990 624.457397,611.486938 
	C622.551514,614.303162 619.155090,616.095581 616.469910,618.405457 
	C615.082458,619.598938 612.852478,620.818115 612.666260,622.243164 
	C611.235107,633.191711 609.563110,644.358154 620.711670,652.807129 
M1334.943115,641.435669 
	C1334.653442,637.284790 1334.957642,632.967041 1333.855347,629.044556 
	C1333.174072,626.621033 1330.664551,623.641602 1328.403320,623.030762 
	C1326.111084,622.411560 1322.421265,623.697876 1320.637817,625.459595 
	C1319.108154,626.970642 1318.861084,630.357605 1318.978638,632.871338 
	C1320.556641,666.618286 1322.290771,700.357971 1324.007202,734.098389 
	C1324.259277,739.052673 1327.239380,741.967529 1332.313599,741.980042 
	C1349.294189,742.021729 1366.275024,741.992188 1383.255493,741.922791 
	C1389.193848,741.898560 1392.803345,738.830383 1392.801880,734.060974 
	C1392.800415,729.360229 1389.107300,726.286072 1383.184448,726.241821 
	C1374.860840,726.179626 1366.536499,726.225891 1358.212402,726.225830 
	C1351.957642,726.225769 1345.703003,726.225769 1339.249878,726.225769 
	C1337.799927,697.858521 1336.382446,670.127197 1334.943115,641.435669 
M555.103760,171.500031 
	C555.103760,160.739655 555.103760,149.979279 555.103760,138.942825 
	C562.009521,138.942825 568.316467,138.959747 574.623291,138.938126 
	C581.089355,138.915955 584.764404,136.149246 584.884949,131.263596 
	C585.006470,126.339966 581.048950,123.313850 574.400208,123.267067 
	C565.743591,123.206154 557.086914,123.116051 548.430237,123.115082 
	C537.943909,123.113899 527.456360,123.109955 516.971741,123.268349 
	C510.814697,123.361351 507.382507,126.812317 507.893707,131.986008 
	C508.316101,136.261139 511.496735,138.878433 516.687988,138.937653 
	C524.282471,139.024277 531.878723,138.959930 539.690918,138.959930 
	C539.690918,162.713104 539.671387,185.848404 539.704285,208.983643 
	C539.712769,214.960205 542.309265,218.063004 547.168091,218.187057 
	C552.273438,218.317398 555.055298,215.157471 555.080994,208.963974 
	C555.131409,196.809509 555.100830,184.654694 555.103760,171.500031 
M1311.527588,316.117767 
	C1307.970337,320.248474 1307.975708,325.112549 1308.197510,330.226471 
	C1308.678711,341.320587 1314.847778,346.166046 1325.692017,343.563385 
	C1335.083374,341.309387 1341.585083,331.765472 1342.017090,319.895691 
	C1342.215454,314.447968 1340.587524,310.148407 1335.599731,307.414398 
	C1330.624878,304.687592 1325.611206,304.705658 1320.994629,307.801361 
	C1317.727051,309.992493 1314.965088,312.937531 1311.527588,316.117767 
M954.286499,308.415924 
	C939.503784,310.158295 930.165894,323.320892 933.566895,337.622162 
	C935.062012,343.909271 938.742432,346.880798 945.231750,347.040222 
	C957.241699,347.335358 966.348267,337.645966 966.971008,323.909882 
	C967.386047,314.755585 964.021118,310.427216 954.286499,308.415924 
z"/>
<path fill="#D4736E" opacity="1.000000" stroke="none" 
	d="
M501.417877,409.355682 
	C545.970947,406.843353 590.520935,403.654327 635.552673,408.998749 
	C637.402527,401.697754 639.115479,394.476288 641.076599,387.322815 
	C643.147644,379.768463 645.583801,372.438812 650.863647,366.237427 
	C654.083618,362.455444 657.649597,363.177399 661.239685,364.235687 
	C664.692444,365.253418 665.166016,368.291443 664.765381,371.585724 
	C662.659912,388.899231 660.607788,406.219269 658.567261,423.540588 
	C657.835571,429.751678 657.188171,435.972687 656.423096,442.906616 
	C663.402771,437.900116 669.406677,433.273468 675.731079,429.136902 
	C683.918762,423.781616 691.958069,417.929779 700.796021,413.905060 
	C712.332764,408.651306 724.586243,414.977203 728.436523,427.175262 
	C730.280029,433.015961 731.558044,439.064453 732.669617,445.096649 
	C733.427795,449.211182 735.981018,451.105408 739.556274,450.790314 
	C745.103760,450.301392 750.692139,449.392914 756.048157,447.893829 
	C760.341125,446.692291 762.382629,443.218048 762.997559,438.550323 
	C766.450989,412.338043 770.087158,386.149414 773.756409,359.966064 
	C777.974854,329.864319 782.292969,299.776550 786.665833,268.992371 
	C785.589294,268.992371 783.526794,268.994019 781.464355,268.992126 
	C750.103882,268.963562 718.939453,266.528961 688.061829,260.988983 
	C682.223145,259.941437 676.472351,258.165314 670.869568,256.190430 
	C669.233948,255.613922 667.415161,253.291122 667.202332,251.579468 
	C666.988098,249.856964 668.235413,246.804260 669.604675,246.262894 
	C672.847046,244.981033 676.985779,243.483505 679.981018,244.462555 
	C699.337341,250.789658 719.367188,250.506042 739.269836,251.120636 
	C755.239746,251.613770 771.238281,251.119247 787.222717,251.244675 
	C790.743469,251.272308 792.535828,250.553452 793.215515,246.581558 
	C796.972656,224.626480 801.012390,202.719162 805.069885,180.816696 
	C805.764404,177.067520 806.716980,173.306885 808.087708,169.759186 
	C809.416016,166.321228 811.523132,162.598831 815.911743,163.452438 
	C820.612061,164.366684 821.189758,168.651245 820.780457,172.610291 
	C819.480957,185.182129 817.987244,197.734573 816.488159,210.284912 
	C814.892212,223.646820 813.204407,236.997742 811.481079,250.966476 
	C813.117798,250.966476 814.872498,250.986588 816.626709,250.963470 
	C844.615601,250.594711 872.607300,250.362259 900.591797,249.778824 
	C912.067871,249.539566 923.539307,248.682404 934.987183,247.780441 
	C937.655029,247.570251 940.422607,246.390259 942.791077,245.037857 
	C949.729309,241.076157 959.490112,243.977905 962.816772,251.253510 
	C965.948181,258.102081 961.782837,265.718109 953.989929,266.976929 
	C948.747437,267.823792 943.438477,268.726532 938.152954,268.766022 
	C896.003113,269.081299 853.851746,269.232697 811.700623,269.292603 
	C808.796265,269.296753 807.426514,269.964264 806.999268,272.899017 
	C803.670532,295.764526 799.866638,318.568817 796.991577,341.490143 
	C794.259705,363.269958 792.441711,385.165222 790.281311,407.015625 
	C788.546387,424.562775 785.978516,442.088806 785.408508,459.677002 
	C784.259155,495.144775 786.518555,530.421997 801.422974,563.332703 
	C804.904602,571.020386 811.515381,577.877380 818.138367,583.363892 
	C823.121460,587.491760 828.362183,587.171997 833.313660,582.540649 
	C842.324585,574.112305 851.507141,566.004700 858.364197,555.553894 
	C860.697021,551.998413 864.329773,549.320129 867.169556,546.067261 
	C871.303894,541.331482 875.345642,536.508240 879.262634,531.591431 
	C882.682312,527.298889 885.553223,522.532959 889.230225,518.488586 
	C898.931030,507.818298 905.614136,496.271912 907.552979,481.328278 
	C909.961182,462.766998 914.719788,444.505676 918.582214,426.139801 
	C921.244385,413.481293 924.029846,400.847076 926.938721,388.243225 
	C927.644409,385.185638 929.134460,382.316895 930.120728,379.314331 
	C931.512634,375.076660 934.564514,372.957428 938.795776,373.236267 
	C943.267029,373.530914 946.294250,376.308258 946.841736,380.782349 
	C947.788940,388.523285 948.424133,396.308502 948.979858,404.090149 
	C951.099976,433.778412 946.729980,463.264496 946.152039,492.865967 
	C945.804565,510.660248 945.306213,528.521240 948.995544,546.114746 
	C950.087036,551.319580 951.410767,556.479675 952.763489,561.624695 
	C954.366638,567.722290 961.164490,570.140015 966.058838,566.268555 
	C979.038574,556.001526 991.441589,544.838135 1000.743530,531.248047 
	C1014.234741,511.537445 1026.193604,490.778503 1038.822998,470.477081 
	C1042.684814,464.269257 1046.788940,458.201324 1050.379028,451.841644 
	C1051.447632,449.948639 1051.813599,447.138641 1051.357300,444.991943 
	C1048.912354,433.489319 1044.421997,422.326263 1045.984497,410.207886 
	C1048.099854,393.801239 1052.181152,378.137451 1063.912231,365.646149 
	C1069.405029,359.797394 1076.294312,356.881836 1084.454102,356.954834 
	C1096.992310,357.066986 1103.241333,364.557251 1100.562866,376.731079 
	C1096.844116,393.633179 1091.199341,409.744598 1079.880737,423.240326 
	C1076.425781,427.359894 1075.937134,430.967773 1077.938965,436.239197 
	C1083.702026,451.414642 1090.398682,465.817230 1100.465088,478.825500 
	C1108.312988,488.967133 1113.525146,500.831757 1116.038452,513.657837 
	C1120.911865,538.528259 1105.632935,559.636719 1087.770264,568.801697 
	C1073.881104,575.927979 1059.774292,582.667358 1045.495728,588.970703 
	C1042.020264,590.505005 1037.426025,590.195801 1033.464478,589.729187 
	C1030.034180,589.325134 1028.732910,586.239990 1030.703247,583.305542 
	C1032.781982,580.209595 1035.186768,576.756348 1038.316162,575.040955 
	C1052.393311,567.324219 1063.902710,556.632141 1074.887085,545.200439 
	C1083.495483,536.241455 1086.670166,525.855225 1082.016235,514.165100 
	C1079.027466,506.657654 1074.824219,499.618378 1070.970825,492.474121 
	C1065.631470,482.574829 1060.109375,472.774139 1054.566406,462.752106 
	C1052.825073,465.681732 1050.737793,469.391479 1048.463013,472.982208 
	C1042.148315,482.949677 1035.748901,492.863464 1029.397461,502.807648 
	C1027.247803,506.173248 1024.940796,509.458160 1023.048218,512.964783 
	C1012.046448,533.349548 999.788879,552.915527 984.997742,570.780640 
	C980.762390,575.896179 976.127869,580.792603 971.097778,585.116394 
	C959.095581,595.433228 941.153076,594.656799 928.559509,583.638306 
	C914.493347,571.331360 908.256714,555.189392 905.999207,537.136902 
	C905.875244,536.145996 905.896179,535.134766 905.739380,534.150574 
	C905.504272,532.675476 905.171448,531.215942 904.680237,528.743347 
	C902.586853,532.746521 901.054077,536.145813 899.113098,539.293335 
	C894.850159,546.206177 890.555176,553.111694 885.955200,559.801514 
	C878.799438,570.208191 871.778259,580.750183 863.932068,590.624573 
	C858.576843,597.363953 852.292480,603.504822 845.751099,609.131592 
	C833.782104,619.426880 810.724670,618.179932 797.115967,606.344849 
	C784.650513,595.504028 775.278625,582.558655 770.045715,566.386536 
	C761.599121,540.282593 757.001526,513.790588 758.262390,486.357025 
	C758.697571,476.888000 759.370422,467.429932 759.976746,457.261322 
	C757.564575,458.336151 755.565979,459.252472 753.547302,460.121979 
	C741.038452,465.509796 728.730469,461.915039 724.696350,451.213257 
	C722.909607,446.473389 722.561157,441.209137 721.251221,436.264648 
	C720.535828,433.564270 719.355408,430.942688 718.074097,428.444885 
	C713.978821,420.461487 710.007874,418.863586 701.901428,422.716675 
	C698.079895,424.533081 694.131836,427.011810 691.489929,430.219086 
	C680.620422,443.414795 670.383057,456.887054 662.966248,472.686707 
	C657.594971,484.128876 654.657410,495.086182 655.904175,507.515259 
	C657.315430,521.584595 658.353638,535.694092 659.354614,549.800293 
	C659.646606,553.914368 659.724854,558.151367 659.080627,562.201538 
	C657.761353,570.495178 651.320740,575.922424 643.296387,576.186768 
	C634.772949,576.467529 627.765198,571.761658 626.091675,563.334778 
	C624.708435,556.369934 624.290833,549.141235 624.151733,542.015625 
	C623.813416,524.689331 624.065002,507.351685 623.748047,490.024628 
	C623.339417,467.681000 627.803467,446.031403 632.470093,424.385895 
	C632.815247,422.784851 633.005798,421.150452 633.333069,419.131958 
	C592.265564,417.952240 551.854248,421.015717 510.806885,425.727783 
	C507.192352,420.206512 504.305115,414.781097 501.417877,409.355682 
M1074.880005,380.483948 
	C1068.633179,393.916443 1066.775024,413.027405 1071.333984,418.661072 
	C1081.983887,405.039673 1087.775513,389.716492 1089.098999,372.316193 
	C1082.284546,371.693573 1078.104492,374.602142 1074.880005,380.483948 
z"/>
<path fill="#D4736E" opacity="1.000000" stroke="none" 
	d="
M1040.255371,247.790451 
	C1041.513916,242.567322 1044.827393,240.186035 1050.071533,240.422791 
	C1051.395752,240.482559 1052.744263,240.644882 1054.022705,240.982697 
	C1089.655640,250.397812 1126.074707,247.386078 1162.273071,247.908279 
	C1165.157837,247.949890 1165.890259,246.464508 1166.323975,244.036896 
	C1169.480835,226.365875 1172.684937,208.703018 1175.959473,191.053391 
	C1177.232300,184.192856 1178.710205,177.369995 1180.132324,170.537811 
	C1180.402466,169.239258 1180.788818,167.956329 1181.226074,166.702698 
	C1182.970337,161.702652 1186.462524,159.094955 1190.348999,160.022125 
	C1195.369263,161.219833 1196.020874,165.282272 1195.757812,169.388168 
	C1195.321777,176.190735 1194.567383,182.979630 1193.740845,189.749100 
	C1191.426147,208.707703 1189.005859,227.653397 1186.550415,247.215912 
	C1188.309082,247.215912 1190.091797,247.225357 1191.874512,247.214447 
	C1211.869995,247.092072 1231.874390,247.289810 1251.858643,246.749741 
	C1271.322144,246.223724 1290.768677,245.001419 1310.212280,243.901047 
	C1312.194336,243.788864 1314.204102,242.595963 1316.029663,241.592834 
	C1320.830322,238.955002 1325.643799,238.973480 1330.301270,241.591797 
	C1334.600586,244.008652 1337.360718,247.547455 1337.106323,252.892609 
	C1336.849609,258.289276 1333.812134,262.464874 1328.028198,263.103394 
	C1316.467773,264.379486 1304.842407,265.657928 1293.231934,265.776886 
	C1258.242432,266.135345 1223.247070,266.015045 1188.255005,265.854919 
	C1184.141113,265.836090 1182.569092,266.832550 1181.782104,271.045044 
	C1176.187744,300.988281 1172.271118,331.116425 1169.778564,361.486847 
	C1167.465942,389.665863 1163.430054,417.711578 1161.438965,445.906830 
	C1159.040649,479.869873 1159.337524,513.755676 1171.387329,546.442932 
	C1174.898560,555.968018 1177.390625,565.859863 1185.072266,573.197266 
	C1187.352417,575.375366 1189.332520,577.930786 1191.832764,579.802002 
	C1196.750610,583.482422 1202.012207,582.818542 1206.609009,578.895935 
	C1216.395386,570.544922 1225.484497,561.629944 1232.765869,550.897278 
	C1235.244751,547.243408 1239.062134,544.524475 1242.032593,541.170105 
	C1245.538696,537.210815 1248.858276,533.079651 1252.135254,528.925781 
	C1256.969604,522.797913 1261.534302,516.451416 1266.501953,510.436066 
	C1275.675293,499.328064 1281.508057,487.222870 1283.463379,472.501953 
	C1285.950806,453.773499 1291.413208,435.456055 1294.347168,416.765808 
	C1296.508301,402.998566 1300.049927,389.811493 1304.909668,376.842072 
	C1306.530151,372.517365 1309.279053,369.992523 1313.742188,370.267151 
	C1318.445312,370.556549 1321.401855,373.526276 1321.918457,378.259125 
	C1322.765381,386.016937 1323.435791,393.798187 1323.988403,401.583221 
	C1325.680542,425.419800 1323.213867,449.135437 1321.872925,472.889618 
	C1320.652344,494.513428 1319.911987,516.174133 1323.076660,537.700989 
	C1324.160522,545.074341 1326.014526,552.369629 1328.014160,559.562256 
	C1329.647583,565.437317 1337.094727,567.125305 1341.765259,562.605957 
	C1353.346313,551.399780 1364.674805,539.932617 1376.104004,528.569397 
	C1376.222046,528.451965 1376.305542,528.273499 1376.444946,528.207703 
	C1383.693604,524.787170 1383.529175,518.070190 1383.707886,511.607666 
	C1384.520020,482.252197 1394.357666,455.684235 1408.151245,430.180725 
	C1414.829712,417.832855 1421.192017,405.402374 1432.270386,396.271637 
	C1440.554199,389.444061 1449.302979,382.455048 1460.204468,381.753265 
	C1476.178833,380.724945 1491.541382,384.399841 1503.315918,396.094727 
	C1507.337891,400.089508 1509.307495,406.316986 1511.655884,411.765320 
	C1512.971802,414.818054 1511.852783,417.922455 1508.173340,418.794189 
	C1504.807617,419.591614 1503.023804,417.559845 1501.972656,414.474976 
	C1499.290283,406.604218 1494.193726,401.983551 1485.571167,400.470612 
	C1466.327026,397.093933 1451.791626,402.208160 1442.579346,419.461273 
	C1430.369995,442.327026 1418.834717,465.801758 1415.562012,492.013306 
	C1413.857300,505.667480 1412.295898,519.543518 1415.978027,533.217041 
	C1419.748535,547.218140 1433.539917,557.834839 1447.216187,556.888550 
	C1450.890869,556.634338 1454.653320,555.176025 1458.033569,553.556580 
	C1475.484131,545.195984 1491.870850,535.096741 1507.457764,523.581604 
	C1517.567871,516.112610 1528.291992,509.469879 1538.828857,502.591461 
	C1539.871216,501.911041 1542.001831,501.552399 1542.782837,502.149384 
	C1543.814819,502.938049 1544.580811,504.862976 1544.473389,506.221344 
	C1543.916748,513.256897 1540.870972,519.190063 1536.015259,524.322815 
	C1526.648682,534.223999 1517.595703,544.429688 1508.025635,554.127075 
	C1503.390015,558.824280 1498.079346,562.934692 1492.713257,566.811096 
	C1486.109009,571.581970 1479.223755,575.985413 1472.293823,580.279846 
	C1443.047729,598.403198 1410.315063,589.146667 1393.112061,558.581482 
	C1389.027222,551.323730 1386.667847,543.094910 1383.283447,534.741882 
	C1380.551880,539.003601 1377.638184,543.169678 1375.113403,547.559509 
	C1367.458984,560.869019 1357.039551,571.879456 1345.987427,582.268738 
	C1336.076050,591.585571 1318.352539,591.627625 1306.620361,582.987488 
	C1292.529297,572.610168 1285.634644,557.958191 1282.123779,541.387451 
	C1281.103638,536.572449 1280.689087,531.629089 1279.813843,525.452820 
	C1277.325684,530.186035 1275.597778,533.926208 1273.469604,537.422791 
	C1269.591187,543.794495 1265.648193,550.140625 1261.419800,556.282349 
	C1254.354614,566.544495 1247.455078,576.965576 1239.697876,586.691345 
	C1234.122192,593.681946 1227.447021,599.843567 1220.918945,606.011475 
	C1215.741089,610.903748 1209.049683,612.577942 1202.071533,612.840881 
	C1183.907593,613.525208 1170.549316,605.112610 1159.188354,591.473755 
	C1144.343018,573.651733 1139.717773,552.098389 1135.112793,530.470398 
	C1130.633179,509.431396 1130.503906,488.022552 1132.890869,466.818573 
	C1136.590332,433.957886 1141.547974,401.240417 1145.781616,368.437653 
	C1147.697632,353.592499 1148.675903,338.614655 1150.943481,323.829498 
	C1153.764526,305.435059 1157.483887,287.178589 1160.793579,268.858612 
	C1160.965088,267.909241 1160.933716,266.923248 1161.055664,265.051147 
	C1153.977417,265.051147 1147.204712,265.096588 1140.432739,265.043182 
	C1113.073364,264.827362 1085.972900,261.896667 1059.093994,256.936096 
	C1053.929810,255.983063 1048.841797,254.368637 1043.913452,252.535477 
	C1042.381470,251.965652 1041.491699,249.668930 1040.255371,247.790451 
z"/>
<path fill="#D3736E" opacity="1.000000" stroke="none" 
	d="
M466.109222,429.884766 
	C440.110199,434.571350 414.060333,438.996948 388.131500,444.044128 
	C372.983856,446.992676 358.152679,451.707672 342.940552,454.129486 
	C334.284637,455.507538 329.574524,459.130524 325.431366,466.679626 
	C311.994019,491.163300 298.660858,515.808777 283.392578,539.152405 
	C269.134888,560.951111 253.053970,581.652466 236.594208,601.875244 
	C228.414978,611.924438 218.348679,620.835205 204.544083,623.578003 
	C186.467972,627.169495 170.440231,618.826477 163.108170,601.891785 
	C150.799210,573.462097 154.996307,546.577576 170.917801,521.018921 
	C181.242081,504.445374 195.009674,491.222290 211.156494,480.061035 
	C235.423187,463.287109 262.119995,452.318695 290.197174,444.127991 
	C297.537720,441.986633 304.816711,439.583374 311.975830,436.904419 
	C313.903229,436.183197 315.931305,434.317139 316.824188,432.454590 
	C333.429657,397.815430 349.874756,363.099365 366.343964,328.394928 
	C376.326050,307.360382 386.291870,286.318054 396.842987,265.364990 
	C400.639862,274.912109 403.858734,284.373505 406.770660,294.025635 
	C386.145447,339.297943 365.827148,384.379456 346.033173,428.297577 
	C382.396667,422.915466 419.585205,417.411224 456.982971,412.202515 
	C460.164551,418.293610 463.136902,424.089172 466.109222,429.884766 
M178.038101,562.781738 
	C176.912521,573.727722 179.813232,583.897278 184.121765,593.763672 
	C186.789154,599.871948 190.915436,601.726135 197.597656,601.293518 
	C202.799835,600.956787 206.080414,597.936646 209.508896,594.781738 
	C223.436829,581.965210 233.952896,566.366150 245.104492,551.273987 
	C264.122253,525.536011 280.465607,498.136444 295.804657,470.106750 
	C296.290619,469.218719 296.437500,468.145081 296.742493,467.157990 
	C296.451569,466.681519 296.160675,466.205078 295.869751,465.728638 
	C284.966644,469.525330 273.970276,473.076080 263.179413,477.168732 
	C239.096100,486.302856 217.504745,499.320221 199.900497,518.476196 
	C188.484467,530.898438 180.704056,545.062195 178.038101,562.781738 
z"/>
<path fill="#030202" opacity="1.000000" stroke="none" 
	d="
M466.394714,430.085693 
	C463.136902,424.089172 460.164551,418.293610 456.885681,411.872742 
	C446.225677,388.157623 435.550293,365.204926 425.630554,341.930206 
	C418.897461,326.132324 413.224640,309.882538 407.077576,293.834869 
	C403.858734,284.373505 400.639862,274.912109 397.146759,265.196350 
	C389.823059,236.866791 382.273987,208.902924 375.979858,180.659378 
	C373.596283,169.963593 373.947296,158.629868 373.459869,147.568939 
	C373.381165,145.783035 375.441223,143.902893 376.512665,142.066315 
	C378.215363,143.094070 380.350677,143.762665 381.550568,145.207870 
	C389.357239,154.610901 392.713928,166.394775 396.223663,177.544861 
	C401.457947,194.173767 406.899078,210.635803 413.979187,227.298660 
	C417.353149,236.345352 420.646637,244.682968 423.940125,253.020584 
	C433.588165,275.002838 442.662628,297.260315 453.043243,318.890991 
	C463.730621,341.161102 475.599030,362.868896 487.142181,384.721558 
	C491.473602,392.921478 496.343781,400.836823 501.193115,409.118774 
	C504.305115,414.781097 507.192352,420.206512 510.365356,425.776672 
	C528.496643,455.095154 545.997070,484.487549 564.304565,513.368408 
	C577.274719,533.829346 591.447144,553.524841 604.847046,573.718567 
	C609.307251,580.440247 613.273743,587.522522 617.028870,594.669617 
	C620.641479,601.545410 618.424744,608.805298 612.206360,612.348816 
	C606.028625,615.869141 598.987061,613.762817 594.450073,607.448792 
	C592.554138,604.810181 589.988037,602.636536 587.630493,600.350647 
	C585.008728,597.808533 581.962402,595.642456 579.641541,592.861450 
	C549.176514,556.356873 519.376099,519.346558 494.941833,478.383606 
	C485.416046,462.414093 476.094727,446.322601 466.394714,430.085693 
z"/>
<path fill="#040404" opacity="1.000000" stroke="none" 
	d="
M567.402100,681.811340 
	C657.514587,682.336182 747.157715,682.857788 836.800781,683.389465 
	C839.631042,683.406250 842.477722,683.356567 845.286743,683.637512 
	C849.842346,684.093201 852.872253,687.356018 852.833679,691.433472 
	C852.793030,695.732971 849.455505,698.975281 844.589600,698.981689 
	C827.760193,699.003784 810.930237,698.936768 794.101074,698.828003 
	C627.143738,697.748535 460.186523,696.650024 293.229218,695.565369 
	C210.086624,695.025269 126.943619,694.539917 43.802628,693.819458 
	C40.882481,693.794067 37.346687,692.135925 35.300426,690.055725 
	C33.984829,688.718323 33.817978,684.347717 35.020241,682.880615 
	C36.845501,680.653320 40.282261,678.571472 43.078320,678.512634 
	C57.396942,678.211548 71.729370,678.618530 86.057411,678.705566 
	C178.866486,679.269165 271.675842,679.783691 364.484741,680.374939 
	C431.967743,680.804871 499.450134,681.328064 567.402100,681.811340 
z"/>
<path fill="#080808" opacity="1.000000" stroke="none" 
	d="
M1384.745117,675.312256 
	C1483.008789,675.270081 1580.840698,675.258545 1678.672485,675.279602 
	C1680.480103,675.279968 1682.810303,675.037720 1683.980957,676.010498 
	C1686.078369,677.753418 1688.798218,680.324585 1688.817627,682.570496 
	C1688.839111,685.083984 1686.526001,688.005249 1684.492065,689.996216 
	C1683.359009,691.105347 1680.727051,690.916626 1678.770386,690.917358 
	C1581.771729,690.955750 1484.773193,690.951111 1387.774536,690.951294 
	C1387.441162,690.951294 1387.107910,690.955383 1386.774536,690.950623 
	C1381.140747,690.870422 1377.926880,688.558594 1377.255859,684.105347 
	C1376.650146,680.084839 1379.048096,677.108765 1384.745117,675.312256 
z"/>
<path fill="#050505" opacity="1.000000" stroke="none" 
	d="
M1203.271851,697.853760 
	C1199.679565,690.552185 1196.266357,683.578247 1193.134766,677.179688 
	C1193.134766,685.122986 1192.942017,693.471619 1193.184204,701.807495 
	C1193.479248,711.960815 1194.159058,722.102600 1194.635620,732.251099 
	C1194.883423,737.526855 1192.695557,741.000305 1188.654907,741.911682 
	C1183.490112,743.076538 1179.314697,739.401611 1179.015869,733.294067 
	C1178.356201,719.818176 1177.737793,706.340088 1177.142700,692.861145 
	C1176.364136,675.222351 1175.730591,657.576294 1174.798096,639.945801 
	C1174.543213,635.128174 1175.992065,631.752563 1180.617676,630.243469 
	C1184.476440,628.984619 1187.933105,631.244324 1190.281250,636.035278 
	C1200.000732,655.865723 1209.745117,675.683716 1219.493042,695.500183 
	C1220.042603,696.617249 1220.704346,697.678955 1222.066895,700.109924 
	C1222.066895,693.430664 1222.067017,688.216248 1222.066895,683.001831 
	C1222.066162,667.507324 1222.019043,652.012573 1222.089355,636.518372 
	C1222.114868,630.908997 1225.192383,627.416260 1229.831909,627.318420 
	C1234.297729,627.224121 1237.514282,630.871521 1237.783325,636.364136 
	C1237.832153,637.361328 1237.794067,638.362915 1237.793701,639.362488 
	C1237.792236,644.027527 1237.782959,648.692505 1237.788574,653.357544 
	C1237.820557,679.680786 1237.839111,706.004089 1237.906128,732.327209 
	C1237.917969,736.988525 1236.302246,740.651978 1231.543213,741.789307 
	C1226.883667,742.902954 1224.052612,740.130127 1222.124512,736.200928 
	C1215.904419,723.525574 1209.676025,710.854309 1203.271851,697.853760 
z"/>
<path fill="#050505" opacity="1.000000" stroke="none" 
	d="
M975.884460,745.797180 
	C968.680237,750.072937 963.223938,747.439880 962.764954,739.581238 
	C961.096924,711.018921 959.599792,682.446716 958.006348,653.880005 
	C957.682434,648.072205 957.220459,642.272095 956.731201,635.144409 
	C963.842712,634.748108 970.671997,634.030518 977.497742,634.062195 
	C989.150146,634.116211 1000.284119,636.635071 1010.303711,642.883301 
	C1027.024536,653.310364 1029.169922,671.347717 1015.473328,685.546204 
	C1008.599487,692.671936 1000.049011,696.986938 990.186157,700.532043 
	C991.705627,701.927673 992.940308,703.120361 994.236145,704.242493 
	C1004.559082,713.181763 1015.048645,721.938965 1025.099487,731.173767 
	C1027.220093,733.122192 1028.910645,736.864990 1028.767456,739.677612 
	C1028.459595,745.726685 1020.937195,747.783386 1015.778931,743.399719 
	C1003.978088,733.371033 992.315430,723.179749 980.593506,713.058044 
	C979.642944,712.237244 978.668762,711.443665 976.739624,709.828857 
	C977.222778,719.980347 977.811707,729.015564 977.979187,738.058594 
	C978.024963,740.530090 976.805664,743.025085 975.884460,745.797180 
M994.613342,682.185547 
	C998.094727,679.666870 1001.957703,677.534424 1004.978455,674.549561 
	C1011.384094,668.219849 1010.632629,661.226868 1003.199890,656.108459 
	C994.323486,649.995789 984.158203,649.174683 973.419128,649.125244 
	C974.116760,662.394043 974.790833,675.215149 975.530151,689.277039 
	C982.270691,686.816101 988.116211,684.681885 994.613342,682.185547 
z"/>
<path fill="#050505" opacity="1.000000" stroke="none" 
	d="
M953.525757,717.367249 
	C955.837830,724.534424 958.038147,731.320068 960.092285,738.149597 
	C961.573914,743.075623 959.615723,747.038940 955.183350,748.514954 
	C951.130615,749.864624 947.060974,747.820496 945.463745,743.093445 
	C942.021545,732.906006 938.844116,722.629211 935.438843,712.016418 
	C923.604431,712.016418 911.810852,711.920105 900.024048,712.157593 
	C898.770691,712.182800 897.060303,713.921631 896.404907,715.274048 
	C892.134521,724.085938 888.154663,733.037964 883.962158,741.888489 
	C881.437439,747.218323 877.092590,749.052185 872.749695,746.866211 
	C868.698181,744.826904 867.585876,740.375183 869.978210,735.206909 
	C884.615173,703.586487 899.302002,671.989075 913.905945,640.353455 
	C915.532532,636.829712 917.820862,634.739380 921.874207,634.942871 
	C925.932495,635.146667 928.041382,637.435059 929.215637,641.144897 
	C937.222717,666.443542 945.298035,691.720520 953.525757,717.367249 
M922.341858,671.144165 
	C921.717163,669.189941 921.092468,667.235718 920.091370,664.103760 
	C914.872192,675.385010 910.150146,685.591919 905.319092,696.034302 
	C914.055481,696.034302 922.037903,696.034302 930.345337,696.034302 
	C927.684143,687.627258 925.186462,679.736816 922.341858,671.144165 
z"/>
<path fill="#050505" opacity="1.000000" stroke="none" 
	d="
M1249.065674,702.971497 
	C1256.457275,679.676147 1263.763062,656.770081 1271.061646,633.861633 
	C1272.308105,629.949036 1274.311768,627.013245 1278.985352,626.952393 
	C1283.322021,626.895813 1285.722534,629.196533 1286.954224,633.063843 
	C1297.222046,665.303772 1307.485718,697.545105 1317.724976,729.794189 
	C1318.274170,731.523621 1318.860229,733.310181 1318.965942,735.097534 
	C1319.205078,739.140137 1317.002319,741.905884 1313.276367,742.835144 
	C1309.071899,743.883850 1305.560059,742.267639 1304.103760,737.992004 
	C1301.217651,729.517761 1298.429810,721.000732 1295.954956,712.399719 
	C1294.792358,708.359070 1293.127319,706.506775 1288.497925,706.789124 
	C1280.547607,707.274109 1272.546387,706.923279 1264.247803,706.923279 
	C1261.155762,716.473083 1258.102051,725.904785 1255.047607,735.336182 
	C1254.741455,736.281799 1254.463989,737.238403 1254.115479,738.168274 
	C1252.268188,743.096252 1248.384033,745.285522 1244.049072,743.862915 
	C1239.900635,742.501526 1237.888672,738.131287 1239.424561,733.199341 
	C1242.529907,723.228271 1245.784302,713.303711 1249.065674,702.971497 
M1286.000854,681.504333 
	C1283.856689,674.887329 1281.712524,668.270264 1279.133545,660.311096 
	C1275.617310,671.309570 1272.522705,680.988647 1269.314209,691.024414 
	C1276.119751,691.024414 1282.361206,691.024414 1288.944214,691.024414 
	C1287.951538,687.915894 1287.052246,685.099731 1286.000854,681.504333 
z"/>
<path fill="#050505" opacity="1.000000" stroke="none" 
	d="
M1057.465088,725.998657 
	C1063.721436,727.991943 1069.475952,728.138489 1075.420898,726.021362 
	C1084.741211,722.702026 1087.987549,717.507996 1086.248169,707.713562 
	C1084.378906,697.187805 1077.644409,690.999512 1067.958740,690.907349 
	C1048.109863,690.718506 1037.743896,678.357910 1040.979980,658.737549 
	C1043.340576,644.425537 1053.163208,633.077332 1066.448608,630.677063 
	C1076.683350,628.827942 1086.824463,629.849915 1095.060669,637.194336 
	C1097.112427,639.023926 1098.686035,641.954956 1099.335327,644.654968 
	C1100.225586,648.356323 1098.496826,651.475220 1094.746826,653.053162 
	C1090.969116,654.642761 1087.930420,653.434570 1085.481445,650.415955 
	C1078.999390,642.425720 1063.014282,644.501831 1059.085693,653.985352 
	C1057.142334,658.676331 1054.860962,663.254211 1056.635498,668.826904 
	C1058.084106,673.376465 1060.490112,674.939087 1065.202759,675.345886 
	C1071.196045,675.863037 1077.522095,676.689270 1082.927734,679.114258 
	C1104.209229,688.661194 1109.032227,719.133789 1091.724976,734.599915 
	C1078.381836,746.523743 1052.502686,746.123413 1041.038696,733.362366 
	C1037.284546,729.183411 1033.966553,724.545776 1030.925293,719.812073 
	C1027.986694,715.237976 1029.488159,710.268066 1033.917969,707.916687 
	C1037.851807,705.828552 1041.550781,707.727295 1044.766235,712.041260 
	C1048.448975,716.981934 1052.930786,721.327026 1057.465088,725.998657 
z"/>
<path fill="#040404" opacity="1.000000" stroke="none" 
	d="
M1165.836426,636.379761 
	C1168.178955,643.529724 1165.155396,647.962891 1158.130615,648.006897 
	C1145.650879,648.085083 1133.170410,648.028870 1121.244141,648.028870 
	C1121.244141,659.277588 1121.244141,670.177795 1121.244141,681.678345 
	C1127.737793,681.678345 1133.336304,681.605713 1138.932129,681.698425 
	C1144.732910,681.794434 1147.977661,684.622986 1148.010620,689.393372 
	C1148.043091,694.081360 1144.652466,697.008606 1138.976074,697.088806 
	C1133.814209,697.161743 1128.651245,697.146057 1123.488892,697.181213 
	C1123.338257,697.182251 1123.188599,697.316895 1123.100220,697.359436 
	C1123.100220,706.791931 1123.100220,716.175781 1123.100220,726.048950 
	C1136.414551,726.048950 1149.039185,726.025879 1161.663574,726.074890 
	C1163.467773,726.081848 1165.357666,726.158447 1167.056030,726.689209 
	C1170.694946,727.826355 1172.925415,730.769470 1171.938477,734.276489 
	C1171.208008,736.872131 1168.666626,739.122375 1166.522705,741.077637 
	C1165.625610,741.895813 1163.669922,741.704529 1162.193970,741.713501 
	C1147.199707,741.804199 1132.204956,741.860840 1117.210449,741.883667 
	C1111.631470,741.892151 1108.306641,738.597351 1108.085327,732.914612 
	C1106.983521,704.626099 1106.458740,676.299500 1104.572876,648.063660 
	C1103.599243,633.486633 1107.097656,631.773743 1119.862915,632.366028 
	C1132.333374,632.944580 1144.856934,632.308472 1157.342407,632.688660 
	C1160.143799,632.773865 1162.883789,634.867493 1165.836426,636.379761 
z"/>
<path fill="#070707" opacity="1.000000" stroke="none" 
	d="
M602.013428,149.982117 
	C602.013489,153.613678 602.013489,156.748642 602.013489,160.111969 
	C612.456787,160.111969 622.536743,160.111969 633.372620,160.111969 
	C633.372620,155.578186 633.338989,150.996475 633.381592,146.415482 
	C633.429626,141.260315 633.280090,136.083115 633.716003,130.957977 
	C634.075684,126.729050 637.693298,123.788605 641.559448,124.213821 
	C645.863831,124.687225 648.493286,127.144302 648.969482,131.597290 
	C649.039978,132.256668 649.011108,132.927765 649.011169,133.593430 
	C649.013855,158.398666 648.985107,183.203979 649.043945,208.009079 
	C649.053955,212.239243 647.847900,215.627075 643.569153,217.015732 
	C638.132935,218.779999 633.541077,215.138855 633.416504,208.793594 
	C633.240051,199.807251 633.372314,190.814850 633.372620,181.825027 
	C633.372681,180.033997 633.372620,178.242950 633.372620,176.221329 
	C622.875916,176.221329 612.771606,176.221329 602.013428,176.221329 
	C602.013428,184.678009 602.015076,193.260498 602.012451,201.842987 
	C602.011658,204.340088 602.111267,206.843735 601.966919,209.332886 
	C601.703613,213.873138 598.648376,216.913498 594.431763,217.021194 
	C590.168091,217.130081 587.077515,214.321579 586.467346,209.754303 
	C586.379578,209.097382 586.384033,208.425125 586.383911,207.759964 
	C586.379517,182.294724 586.245178,156.827789 586.569824,131.366684 
	C586.605530,128.567062 588.670471,124.998306 590.930847,123.292427 
	C592.524353,122.089874 596.666016,122.563347 598.527405,123.890762 
	C600.418457,125.239319 601.668701,128.495331 601.860229,131.017731 
	C602.325256,137.142227 602.012695,143.325745 602.013428,149.982117 
z"/>
<path fill="#020202" opacity="1.000000" stroke="none" 
	d="
M664.002930,122.689301 
	C678.075989,122.763817 691.736023,122.749870 705.395691,122.802345 
	C711.645569,122.826355 715.009949,125.534981 715.047180,130.389771 
	C715.084412,135.244339 711.616333,138.134644 705.550598,138.154083 
	C693.917114,138.191360 682.283508,138.164917 670.339478,138.164917 
	C670.339478,145.384033 670.339478,152.282974 670.339478,159.681030 
	C675.855408,159.681030 681.304932,159.623611 686.752686,159.697006 
	C692.314575,159.771942 695.827148,162.872177 695.767883,167.491776 
	C695.708618,172.111450 692.212280,175.029083 686.553284,175.079239 
	C681.248901,175.126236 675.943848,175.089294 670.339600,175.089294 
	C670.339600,184.114380 670.339600,192.823929 670.339600,201.974747 
	C682.413330,201.974747 694.362732,202.021622 706.311401,201.949203 
	C710.472107,201.923996 713.446289,203.550018 714.727478,207.549393 
	C716.412170,212.808472 712.575195,217.339111 706.186951,217.430603 
	C696.193848,217.573730 686.197205,217.451019 676.202209,217.485611 
	C672.041321,217.500015 667.880188,217.604233 663.720398,217.712296 
	C657.737305,217.867752 654.257385,214.176682 654.275635,208.119659 
	C654.351929,182.818512 654.363159,157.516907 654.301697,132.215729 
	C654.286377,125.913994 656.696228,123.247131 664.002930,122.689301 
z"/>
<path fill="#D3736E" opacity="1.000000" stroke="none" 
	d="
M620.429199,652.589661 
	C609.563110,644.358154 611.235107,633.191711 612.666260,622.243164 
	C612.852478,620.818115 615.082458,619.598938 616.469910,618.405457 
	C619.155090,616.095581 622.551514,614.303162 624.457397,611.486938 
	C626.231873,608.864990 627.961792,608.013672 630.860413,607.938599 
	C646.631165,607.530212 660.264465,617.587097 664.037231,632.562195 
	C666.293091,641.516235 672.227600,646.452393 681.376892,647.014893 
	C682.825012,647.103943 684.267029,647.291870 686.813477,647.542419 
	C685.463928,649.796021 684.689392,651.496948 683.558594,652.913513 
	C674.426208,664.354126 662.032349,666.018677 648.486511,664.870789 
	C637.771362,663.962830 628.882446,659.328613 620.429199,652.589661 
z"/>
<path fill="#060606" opacity="1.000000" stroke="none" 
	d="
M1334.954102,641.915771 
	C1336.382446,670.127197 1337.799927,697.858521 1339.249878,726.225769 
	C1345.703003,726.225769 1351.957642,726.225769 1358.212402,726.225830 
	C1366.536499,726.225891 1374.860840,726.179626 1383.184448,726.241821 
	C1389.107300,726.286072 1392.800415,729.360229 1392.801880,734.060974 
	C1392.803345,738.830383 1389.193848,741.898560 1383.255493,741.922791 
	C1366.275024,741.992188 1349.294189,742.021729 1332.313599,741.980042 
	C1327.239380,741.967529 1324.259277,739.052673 1324.007202,734.098389 
	C1322.290771,700.357971 1320.556641,666.618286 1318.978638,632.871338 
	C1318.861084,630.357605 1319.108154,626.970642 1320.637817,625.459595 
	C1322.421265,623.697876 1326.111084,622.411560 1328.403320,623.030762 
	C1330.664551,623.641602 1333.174072,626.621033 1333.855347,629.044556 
	C1334.957642,632.967041 1334.653442,637.284790 1334.954102,641.915771 
z"/>
<path fill="#040404" opacity="1.000000" stroke="none" 
	d="
M555.103760,172.000031 
	C555.100830,184.654694 555.131409,196.809509 555.080994,208.963974 
	C555.055298,215.157471 552.273438,218.317398 547.168091,218.187057 
	C542.309265,218.063004 539.712769,214.960205 539.704285,208.983643 
	C539.671387,185.848404 539.690918,162.713104 539.690918,138.959930 
	C531.878723,138.959930 524.282471,139.024277 516.687988,138.937653 
	C511.496735,138.878433 508.316101,136.261139 507.893707,131.986008 
	C507.382507,126.812317 510.814697,123.361351 516.971741,123.268349 
	C527.456360,123.109955 537.943909,123.113899 548.430237,123.115082 
	C557.086914,123.116051 565.743591,123.206154 574.400208,123.267067 
	C581.048950,123.313850 585.006470,126.339966 584.884949,131.263596 
	C584.764404,136.149246 581.089355,138.915955 574.623291,138.938126 
	C568.316467,138.959747 562.009521,138.942825 555.103760,138.942825 
	C555.103760,149.979279 555.103760,160.739655 555.103760,172.000031 
z"/>
<path fill="#D2746F" opacity="1.000000" stroke="none" 
	d="
M424.201752,252.787537 
	C420.646637,244.682968 417.353149,236.345352 414.090790,227.666870 
	C415.332733,225.664597 416.867249,224.150986 417.703979,222.318756 
	C425.436157,205.386795 433.028076,188.390793 440.729340,171.444595 
	C441.396759,169.976028 442.284790,167.985184 443.539154,167.530594 
	C446.497955,166.458328 451.465118,164.680984 452.497223,165.878998 
	C454.462646,168.160477 455.615662,172.757706 454.701813,175.627930 
	C450.424774,189.061325 445.629242,202.352921 440.438599,215.465454 
	C435.486298,227.976013 429.817322,240.202896 424.201752,252.787537 
z"/>
<path fill="#D3736F" opacity="1.000000" stroke="none" 
	d="
M1311.752441,315.831909 
	C1314.965088,312.937531 1317.727051,309.992493 1320.994629,307.801361 
	C1325.611206,304.705658 1330.624878,304.687592 1335.599731,307.414398 
	C1340.587524,310.148407 1342.215454,314.447968 1342.017090,319.895691 
	C1341.585083,331.765472 1335.083374,341.309387 1325.692017,343.563385 
	C1314.847778,346.166046 1308.678711,341.320587 1308.197510,330.226471 
	C1307.975708,325.112549 1307.970337,320.248474 1311.752441,315.831909 
z"/>
<path fill="#D3736F" opacity="1.000000" stroke="none" 
	d="
M954.666260,308.493225 
	C964.021118,310.427216 967.386047,314.755585 966.971008,323.909882 
	C966.348267,337.645966 957.241699,347.335358 945.231750,347.040222 
	C938.742432,346.880798 935.062012,343.909271 933.566895,337.622162 
	C930.165894,323.320892 939.503784,310.158295 954.666260,308.493225 
z"/>
<path fill="#FCFAF9" opacity="1.000000" stroke="none" 
	d="
M1075.035034,380.147339 
	C1078.104492,374.602142 1082.284546,371.693573 1089.098999,372.316193 
	C1087.775513,389.716492 1081.983887,405.039673 1071.333984,418.661072 
	C1066.775024,413.027405 1068.633179,393.916443 1075.035034,380.147339 
z"/>
<path fill="#FEFDFD" opacity="1.000000" stroke="none" 
	d="
M178.052338,562.320374 
	C180.704056,545.062195 188.484467,530.898438 199.900497,518.476196 
	C217.504745,499.320221 239.096100,486.302856 263.179413,477.168732 
	C273.970276,473.076080 284.966644,469.525330 295.869751,465.728638 
	C296.160675,466.205078 296.451569,466.681519 296.742493,467.157990 
	C296.437500,468.145081 296.290619,469.218719 295.804657,470.106750 
	C280.465607,498.136444 264.122253,525.536011 245.104492,551.273987 
	C233.952896,566.366150 223.436829,581.965210 209.508896,594.781738 
	C206.080414,597.936646 202.799835,600.956787 197.597656,601.293518 
	C190.915436,601.726135 186.789154,599.871948 184.121765,593.763672 
	C179.813232,583.897278 176.912521,573.727722 178.052338,562.320374 
z"/>
<path fill="#FEFDFD" opacity="1.000000" stroke="none" 
	d="
M406.770691,294.025635 
	C413.224640,309.882538 418.897461,326.132324 425.630554,341.930206 
	C435.550293,365.204926 446.225677,388.157623 456.676453,411.577240 
	C419.585205,417.411224 382.396667,422.915466 346.033173,428.297577 
	C365.827148,384.379456 386.145447,339.297943 406.770691,294.025635 
z"/>
<path fill="#FAFAFA" opacity="1.000000" stroke="none" 
	d="
M994.287537,682.366638 
	C988.116211,684.681885 982.270691,686.816101 975.530151,689.277039 
	C974.790833,675.215149 974.116760,662.394043 973.419128,649.125244 
	C984.158203,649.174683 994.323486,649.995789 1003.199890,656.108459 
	C1010.632629,661.226868 1011.384094,668.219849 1004.978455,674.549561 
	C1001.957703,677.534424 998.094727,679.666870 994.287537,682.366638 
z"/>
<path fill="#F7F7F7" opacity="1.000000" stroke="none" 
	d="
M922.515320,671.495300 
	C925.186462,679.736816 927.684143,687.627258 930.345337,696.034302 
	C922.037903,696.034302 914.055481,696.034302 905.319092,696.034302 
	C910.150146,685.591919 914.872192,675.385010 920.091370,664.103760 
	C921.092468,667.235718 921.717163,669.189941 922.515320,671.495300 
z"/>
<path fill="#F7F7F7" opacity="1.000000" stroke="none" 
	d="
M1286.076904,681.893921 
	C1287.052246,685.099731 1287.951538,687.915894 1288.944214,691.024414 
	C1282.361206,691.024414 1276.119751,691.024414 1269.314209,691.024414 
	C1272.522705,680.988647 1275.617310,671.309570 1279.133545,660.311096 
	C1281.712524,668.270264 1283.856689,674.887329 1286.076904,681.893921 
z"/>
</svg>